<svg id="Icon_ionic-md-eye-off" data-name="Icon ionic-md-eye-off" xmlns="http://www.w3.org/2000/svg" width="17.936" height="15.371" viewBox="0 0 17.936 15.371">
  <path id="Icon_ionic-md-eye-off-2" data-name="Icon ionic-md-eye-off" d="M11.22,7.734A4.066,4.066,0,0,1,15.3,11.781a3.893,3.893,0,0,1-.292,1.481l2.382,2.362a9.569,9.569,0,0,0,2.8-3.843,9.659,9.659,0,0,0-12.22-5.5L9.727,8.026A4.033,4.033,0,0,1,11.22,7.734ZM3.067,5.529,4.928,7.374l.376.372A9.523,9.523,0,0,0,2.25,11.781a9.674,9.674,0,0,0,12.541,5.388l.344.34,2.39,2.362,1.037-1.029L4.1,4.5ZM7.574,10l1.265,1.253a2.293,2.293,0,0,0-.064.524A2.434,2.434,0,0,0,11.22,14.2a2.3,2.3,0,0,0,.528-.064l1.265,1.253a4.058,4.058,0,0,1-5.872-3.619A4,4,0,0,1,7.574,10Zm3.514-.628,2.57,2.55.016-.128a2.434,2.434,0,0,0-2.446-2.426Z" transform="translate(-2.25 -4.5)"/>
</svg>
